<mxfile host="app.diagrams.net" modified="2020-10-03T11:03:17.696Z" agent="5.0 (Macintosh; Intel Mac OS X 10_15_6) AppleWebKit/537.36 (KHTML, like Gecko) Chrome/85.0.4183.121 Safari/537.36" etag="Ved-goBm9g-v_AmQAenz" version="13.7.7" type="github">
  <diagram id="owqiKtjegZCFVWd7rJzW" name="Page-1">
    <mxGraphModel dx="1186" dy="538" grid="1" gridSize="10" guides="1" tooltips="1" connect="1" arrows="1" fold="1" page="1" pageScale="1" pageWidth="827" pageHeight="1169" math="0" shadow="0">
      <root>
        <mxCell id="0" />
        <mxCell id="1" parent="0" />
        <mxCell id="Mhult8i7kt20SpEzvvNn-29" value="" style="shape=ext;rounded=1;html=1;whiteSpace=wrap;dashed=1;dashPattern=1 4;" parent="1" vertex="1">
          <mxGeometry x="10" y="255" width="143.5" height="190" as="geometry" />
        </mxCell>
        <mxCell id="Mhult8i7kt20SpEzvvNn-27" value="" style="shape=ext;rounded=1;html=1;whiteSpace=wrap;dashed=1;dashPattern=1 4;" parent="1" vertex="1">
          <mxGeometry x="176" y="230" width="644" height="260" as="geometry" />
        </mxCell>
        <mxCell id="Mhult8i7kt20SpEzvvNn-26" value="" style="shape=ext;rounded=1;html=1;whiteSpace=wrap;dashed=1;dashPattern=1 4;" parent="1" vertex="1">
          <mxGeometry x="201" y="510" width="590" height="60" as="geometry" />
        </mxCell>
        <mxCell id="Mhult8i7kt20SpEzvvNn-1" value="" style="rounded=0;whiteSpace=wrap;html=1;" parent="1" vertex="1">
          <mxGeometry x="196" y="240" width="470" height="230" as="geometry" />
        </mxCell>
        <mxCell id="Mhult8i7kt20SpEzvvNn-3" value="" style="edgeStyle=orthogonalEdgeStyle;rounded=0;orthogonalLoop=1;jettySize=auto;html=1;exitX=1;exitY=0.5;exitDx=0;exitDy=0;fillColor=#E6E6E6;" parent="1" source="Mhult8i7kt20SpEzvvNn-12" target="Mhult8i7kt20SpEzvvNn-2" edge="1">
          <mxGeometry relative="1" as="geometry" />
        </mxCell>
        <mxCell id="Mhult8i7kt20SpEzvvNn-5" value="" style="edgeStyle=orthogonalEdgeStyle;rounded=0;orthogonalLoop=1;jettySize=auto;html=1;exitX=1;exitY=0.5;exitDx=0;exitDy=0;fillColor=#E6E6E6;" parent="1" source="Mhult8i7kt20SpEzvvNn-13" target="Mhult8i7kt20SpEzvvNn-4" edge="1">
          <mxGeometry relative="1" as="geometry" />
        </mxCell>
        <mxCell id="Mhult8i7kt20SpEzvvNn-42" style="edgeStyle=orthogonalEdgeStyle;rounded=0;orthogonalLoop=1;jettySize=auto;html=1;exitX=0.5;exitY=0;exitDx=0;exitDy=0;entryX=0.5;entryY=1;entryDx=0;entryDy=0;fillColor=#E6E6E6;" parent="1" source="Mhult8i7kt20SpEzvvNn-4" target="Mhult8i7kt20SpEzvvNn-2" edge="1">
          <mxGeometry relative="1" as="geometry" />
        </mxCell>
        <mxCell id="Mhult8i7kt20SpEzvvNn-4" value="" style="rounded=0;whiteSpace=wrap;html=1;fillColor=#E6E6E6;" parent="1" vertex="1">
          <mxGeometry x="686" y="400" width="120" height="60" as="geometry" />
        </mxCell>
        <mxCell id="Mhult8i7kt20SpEzvvNn-2" value="" style="rounded=0;whiteSpace=wrap;html=1;fillColor=#E6E6E6;" parent="1" vertex="1">
          <mxGeometry x="686" y="320" width="120" height="60" as="geometry" />
        </mxCell>
        <mxCell id="Mhult8i7kt20SpEzvvNn-10" value="任务运行标记" style="rounded=0;whiteSpace=wrap;html=1;fillColor=#B3B3B3;" parent="1" vertex="1">
          <mxGeometry x="21.75" y="335" width="120" height="40" as="geometry" />
        </mxCell>
        <mxCell id="Mhult8i7kt20SpEzvvNn-12" value="" style="rounded=0;whiteSpace=wrap;html=1;fillColor=#E6E6E6;" parent="1" vertex="1">
          <mxGeometry x="486" y="320" width="160" height="60" as="geometry" />
        </mxCell>
        <mxCell id="Mhult8i7kt20SpEzvvNn-13" value="" style="rounded=0;whiteSpace=wrap;html=1;fillColor=#E6E6E6;" parent="1" vertex="1">
          <mxGeometry x="486" y="400" width="160" height="60" as="geometry" />
        </mxCell>
        <mxCell id="Mhult8i7kt20SpEzvvNn-16" value="pontus计算平台" style="rounded=0;whiteSpace=wrap;html=1;fillColor=#B3B3B3;" parent="1" vertex="1">
          <mxGeometry x="251" y="520" width="120" height="40" as="geometry" />
        </mxCell>
        <mxCell id="Mhult8i7kt20SpEzvvNn-17" value="antmonitor" style="rounded=0;whiteSpace=wrap;html=1;fillColor=#B3B3B3;" parent="1" vertex="1">
          <mxGeometry x="641" y="520" width="120" height="40" as="geometry" />
        </mxCell>
        <mxCell id="Mhult8i7kt20SpEzvvNn-18" value="&lt;span&gt;任务调度&lt;/span&gt;" style="text;html=1;align=center;verticalAlign=middle;resizable=0;points=[];autosize=1;" parent="1" vertex="1">
          <mxGeometry x="196" y="310" width="60" height="20" as="geometry" />
        </mxCell>
        <mxCell id="Mhult8i7kt20SpEzvvNn-19" value="intelligent-alg" style="rounded=0;whiteSpace=wrap;html=1;fillColor=#B3B3B3;" parent="1" vertex="1">
          <mxGeometry x="381" y="520" width="120" height="40" as="geometry" />
        </mxCell>
        <mxCell id="Mhult8i7kt20SpEzvvNn-20" value="driver" style="shape=mxgraph.bpmn.loop;html=1;outlineConnect=0;" parent="1" vertex="1">
          <mxGeometry x="236" y="330" width="60" height="60" as="geometry" />
        </mxCell>
        <mxCell id="Mhult8i7kt20SpEzvvNn-30" value="" style="html=1;shadow=0;dashed=0;align=center;verticalAlign=middle;shape=mxgraph.arrows2.arrow;dy=0.6;dx=40;direction=north;notch=0;fillColor=#B3B3B3;" parent="1" vertex="1">
          <mxGeometry x="461" y="490" width="70" height="20" as="geometry" />
        </mxCell>
        <mxCell id="Mhult8i7kt20SpEzvvNn-31" value="" style="html=1;shadow=0;dashed=0;align=center;verticalAlign=middle;shape=mxgraph.arrows2.arrow;dy=0.6;dx=40;direction=north;notch=0;fillColor=#B3B3B3;rotation=-90;" parent="1" vertex="1">
          <mxGeometry x="131" y="335" width="70" height="20" as="geometry" />
        </mxCell>
        <mxCell id="IhhSQsG7TcZcSRsEs26X-16" style="edgeStyle=orthogonalEdgeStyle;rounded=0;orthogonalLoop=1;jettySize=auto;html=1;exitX=1;exitY=0.5;exitDx=0;exitDy=0;exitPerimeter=0;entryX=0;entryY=1;entryDx=0;entryDy=0;" edge="1" parent="1" source="Mhult8i7kt20SpEzvvNn-32" target="Mhult8i7kt20SpEzvvNn-59">
          <mxGeometry relative="1" as="geometry" />
        </mxCell>
        <mxCell id="IhhSQsG7TcZcSRsEs26X-17" style="edgeStyle=orthogonalEdgeStyle;rounded=0;orthogonalLoop=1;jettySize=auto;html=1;exitX=0.5;exitY=0;exitDx=0;exitDy=0;exitPerimeter=0;entryX=0;entryY=0;entryDx=0;entryDy=0;" edge="1" parent="1" source="Mhult8i7kt20SpEzvvNn-32" target="IhhSQsG7TcZcSRsEs26X-6">
          <mxGeometry relative="1" as="geometry">
            <Array as="points">
              <mxPoint x="396" y="280" />
            </Array>
          </mxGeometry>
        </mxCell>
        <mxCell id="IhhSQsG7TcZcSRsEs26X-18" style="edgeStyle=orthogonalEdgeStyle;rounded=0;orthogonalLoop=1;jettySize=auto;html=1;exitX=0.5;exitY=0.88;exitDx=0;exitDy=0;exitPerimeter=0;entryX=0;entryY=1;entryDx=0;entryDy=0;" edge="1" parent="1" source="Mhult8i7kt20SpEzvvNn-32" target="Mhult8i7kt20SpEzvvNn-60">
          <mxGeometry relative="1" as="geometry">
            <Array as="points">
              <mxPoint x="396" y="430" />
            </Array>
          </mxGeometry>
        </mxCell>
        <mxCell id="Mhult8i7kt20SpEzvvNn-32" value="容量风险识别模型" style="strokeWidth=2;html=1;shape=mxgraph.flowchart.multi-document;whiteSpace=wrap;fillColor=#B3B3B3;" parent="1" vertex="1">
          <mxGeometry x="331" y="320" width="130" height="60" as="geometry" />
        </mxCell>
        <mxCell id="Mhult8i7kt20SpEzvvNn-40" value="&lt;table border=&quot;1&quot; width=&quot;100%&quot; cellpadding=&quot;4&quot; style=&quot;width: 100% ; height: 100% ; border-collapse: collapse&quot;&gt;&lt;tbody&gt;&lt;tr&gt;&lt;th align=&quot;center&quot;&gt;Worker1&lt;/th&gt;&lt;/tr&gt;&lt;tr&gt;&lt;td align=&quot;center&quot;&gt;App1&lt;/td&gt;&lt;/tr&gt;&lt;tr&gt;&lt;td align=&quot;center&quot;&gt;&lt;span&gt;App2&lt;/span&gt;&lt;br&gt;&lt;/td&gt;&lt;/tr&gt;&lt;/tbody&gt;&lt;/table&gt;" style="text;html=1;strokeColor=none;fillColor=none;overflow=fill;" parent="1" vertex="1">
          <mxGeometry x="206" y="390" width="60" height="70" as="geometry" />
        </mxCell>
        <mxCell id="Mhult8i7kt20SpEzvvNn-41" value="&lt;table border=&quot;1&quot; width=&quot;100%&quot; cellpadding=&quot;4&quot; style=&quot;width: 100% ; height: 100% ; border-collapse: collapse&quot;&gt;&lt;tbody&gt;&lt;tr&gt;&lt;th align=&quot;center&quot;&gt;Worker2&lt;/th&gt;&lt;/tr&gt;&lt;tr&gt;&lt;td align=&quot;center&quot;&gt;App3&lt;/td&gt;&lt;/tr&gt;&lt;tr&gt;&lt;td align=&quot;center&quot;&gt;&lt;span&gt;App4&lt;/span&gt;&lt;br&gt;&lt;/td&gt;&lt;/tr&gt;&lt;/tbody&gt;&lt;/table&gt;" style="text;html=1;strokeColor=none;fillColor=none;overflow=fill;" parent="1" vertex="1">
          <mxGeometry x="266" y="390" width="60" height="70" as="geometry" />
        </mxCell>
        <mxCell id="Mhult8i7kt20SpEzvvNn-43" value="&lt;span&gt;单指标异常计算&lt;/span&gt;" style="text;html=1;align=center;verticalAlign=middle;resizable=0;points=[];autosize=1;" parent="1" vertex="1">
          <mxGeometry x="686" y="320" width="100" height="20" as="geometry" />
        </mxCell>
        <mxCell id="Mhult8i7kt20SpEzvvNn-44" value="&lt;span&gt;数据拉取任务&lt;/span&gt;" style="text;html=1;align=center;verticalAlign=middle;resizable=0;points=[];autosize=1;" parent="1" vertex="1">
          <mxGeometry x="686" y="400" width="90" height="20" as="geometry" />
        </mxCell>
        <mxCell id="Mhult8i7kt20SpEzvvNn-47" value="指标突增" style="rounded=0;whiteSpace=wrap;html=1;fillColor=#B3B3B3;" parent="1" vertex="1">
          <mxGeometry x="711" y="340" width="70" height="20" as="geometry" />
        </mxCell>
        <mxCell id="Mhult8i7kt20SpEzvvNn-48" value="基线对比" style="rounded=0;whiteSpace=wrap;html=1;fillColor=#B3B3B3;" parent="1" vertex="1">
          <mxGeometry x="711" y="360" width="70" height="20" as="geometry" />
        </mxCell>
        <mxCell id="Mhult8i7kt20SpEzvvNn-49" value="指标缓存" style="rounded=0;whiteSpace=wrap;html=1;fillColor=#B3B3B3;" parent="1" vertex="1">
          <mxGeometry x="711" y="420" width="70" height="20" as="geometry" />
        </mxCell>
        <mxCell id="Mhult8i7kt20SpEzvvNn-50" value="接口封装" style="rounded=0;whiteSpace=wrap;html=1;fillColor=#B3B3B3;" parent="1" vertex="1">
          <mxGeometry x="711" y="440" width="70" height="20" as="geometry" />
        </mxCell>
        <mxCell id="Mhult8i7kt20SpEzvvNn-55" value="内存缓存" style="rounded=1;whiteSpace=wrap;html=1;fillColor=#B3B3B3;" parent="1" vertex="1">
          <mxGeometry x="486" y="430" width="80" height="30" as="geometry" />
        </mxCell>
        <mxCell id="Mhult8i7kt20SpEzvvNn-56" value="多机任务协同" style="rounded=1;whiteSpace=wrap;html=1;fillColor=#B3B3B3;" parent="1" vertex="1">
          <mxGeometry x="486" y="350" width="80" height="30" as="geometry" />
        </mxCell>
        <mxCell id="Mhult8i7kt20SpEzvvNn-57" value="任务监控" style="rounded=1;whiteSpace=wrap;html=1;fillColor=#B3B3B3;" parent="1" vertex="1">
          <mxGeometry x="566" y="350" width="80" height="30" as="geometry" />
        </mxCell>
        <mxCell id="Mhult8i7kt20SpEzvvNn-58" value="数据抽检" style="rounded=1;whiteSpace=wrap;html=1;fillColor=#B3B3B3;" parent="1" vertex="1">
          <mxGeometry x="566" y="430" width="80" height="30" as="geometry" />
        </mxCell>
        <mxCell id="Mhult8i7kt20SpEzvvNn-59" value="&lt;meta charset=&quot;utf-8&quot;&gt;&lt;span style=&quot;color: rgb(0, 0, 0); font-family: helvetica; font-size: 12px; font-style: normal; font-weight: 400; letter-spacing: normal; text-align: center; text-indent: 0px; text-transform: none; word-spacing: 0px; background-color: rgb(248, 249, 250); display: inline; float: none;&quot;&gt;计算任务配置&lt;/span&gt;" style="text;whiteSpace=wrap;html=1;" parent="1" vertex="1">
          <mxGeometry x="486" y="320" width="100" height="30" as="geometry" />
        </mxCell>
        <mxCell id="Mhult8i7kt20SpEzvvNn-60" value="&lt;meta charset=&quot;utf-8&quot;&gt;&lt;span style=&quot;color: rgb(0, 0, 0); font-family: helvetica; font-size: 12px; font-style: normal; font-weight: 400; letter-spacing: normal; text-align: center; text-indent: 0px; text-transform: none; word-spacing: 0px; background-color: rgb(248, 249, 250); display: inline; float: none;&quot;&gt;数据拉取配置&lt;/span&gt;" style="text;whiteSpace=wrap;html=1;" parent="1" vertex="1">
          <mxGeometry x="486" y="400" width="100" height="30" as="geometry" />
        </mxCell>
        <mxCell id="Mhult8i7kt20SpEzvvNn-61" value="任务运行状态记录" style="rounded=0;whiteSpace=wrap;html=1;fillColor=#B3B3B3;" parent="1" vertex="1">
          <mxGeometry x="21.75" y="395" width="120" height="40" as="geometry" />
        </mxCell>
        <mxCell id="Mhult8i7kt20SpEzvvNn-63" value="指标异常检测结果" style="rounded=0;whiteSpace=wrap;html=1;fillColor=#B3B3B3;" parent="1" vertex="1">
          <mxGeometry x="21.75" y="275" width="120" height="40" as="geometry" />
        </mxCell>
        <mxCell id="Mhult8i7kt20SpEzvvNn-64" value="应用指标基线" style="rounded=0;whiteSpace=wrap;html=1;fillColor=#B3B3B3;" parent="1" vertex="1">
          <mxGeometry x="511" y="520" width="120" height="40" as="geometry" />
        </mxCell>
        <mxCell id="IhhSQsG7TcZcSRsEs26X-1" value="&lt;span&gt;风险识别&lt;/span&gt;" style="rounded=1;whiteSpace=wrap;html=1;fillColor=#E6E6E6;" vertex="1" parent="1">
          <mxGeometry x="220" y="150" width="120" height="60" as="geometry" />
        </mxCell>
        <mxCell id="IhhSQsG7TcZcSRsEs26X-2" value="压测熔断" style="rounded=1;whiteSpace=wrap;html=1;fillColor=#E6E6E6;" vertex="1" parent="1">
          <mxGeometry x="371" y="150" width="120" height="60" as="geometry" />
        </mxCell>
        <mxCell id="IhhSQsG7TcZcSRsEs26X-3" value="扩容自愈" style="rounded=1;whiteSpace=wrap;html=1;fillColor=#E6E6E6;" vertex="1" parent="1">
          <mxGeometry x="521" y="150" width="120" height="60" as="geometry" />
        </mxCell>
        <mxCell id="IhhSQsG7TcZcSRsEs26X-4" value="应用扩缩容状态保鲜" style="rounded=1;whiteSpace=wrap;html=1;fillColor=#E6E6E6;" vertex="1" parent="1">
          <mxGeometry x="676" y="150" width="120" height="60" as="geometry" />
        </mxCell>
        <mxCell id="IhhSQsG7TcZcSRsEs26X-5" value="" style="rounded=0;whiteSpace=wrap;html=1;fillColor=#E6E6E6;" vertex="1" parent="1">
          <mxGeometry x="486" y="250" width="160" height="60" as="geometry" />
        </mxCell>
        <mxCell id="IhhSQsG7TcZcSRsEs26X-6" value="参数配置" style="rounded=1;whiteSpace=wrap;html=1;fillColor=#FFFFFF;" vertex="1" parent="1">
          <mxGeometry x="486" y="280" width="80" height="30" as="geometry" />
        </mxCell>
        <mxCell id="IhhSQsG7TcZcSRsEs26X-14" style="edgeStyle=orthogonalEdgeStyle;rounded=0;orthogonalLoop=1;jettySize=auto;html=1;exitX=1;exitY=0;exitDx=0;exitDy=0;entryX=0;entryY=0.5;entryDx=0;entryDy=0;" edge="1" parent="1" source="IhhSQsG7TcZcSRsEs26X-7" target="IhhSQsG7TcZcSRsEs26X-10">
          <mxGeometry relative="1" as="geometry">
            <Array as="points">
              <mxPoint x="656" y="280" />
              <mxPoint x="656" y="280" />
            </Array>
          </mxGeometry>
        </mxCell>
        <mxCell id="IhhSQsG7TcZcSRsEs26X-7" value="特定规则" style="rounded=1;whiteSpace=wrap;html=1;fillColor=#FFFFFF;" vertex="1" parent="1">
          <mxGeometry x="566" y="280" width="80" height="30" as="geometry" />
        </mxCell>
        <mxCell id="IhhSQsG7TcZcSRsEs26X-8" value="&lt;span style=&quot;color: rgb(0 , 0 , 0) ; font-family: &amp;#34;helvetica&amp;#34; ; font-size: 12px ; font-style: normal ; font-weight: 400 ; letter-spacing: normal ; text-align: center ; text-indent: 0px ; text-transform: none ; word-spacing: 0px ; background-color: rgb(248 , 249 , 250) ; display: inline ; float: none&quot;&gt;应用识别规则&lt;/span&gt;" style="text;whiteSpace=wrap;html=1;fillColor=#E6E6E6;" vertex="1" parent="1">
          <mxGeometry x="486" y="250" width="100" height="30" as="geometry" />
        </mxCell>
        <mxCell id="IhhSQsG7TcZcSRsEs26X-10" value="" style="rounded=0;whiteSpace=wrap;html=1;fillColor=#E6E6E6;" vertex="1" parent="1">
          <mxGeometry x="686" y="250" width="120" height="60" as="geometry" />
        </mxCell>
        <mxCell id="IhhSQsG7TcZcSRsEs26X-11" value="&lt;span&gt;多指标联合告警&lt;/span&gt;" style="text;html=1;align=center;verticalAlign=middle;resizable=0;points=[];autosize=1;" vertex="1" parent="1">
          <mxGeometry x="686" y="250" width="100" height="20" as="geometry" />
        </mxCell>
        <mxCell id="IhhSQsG7TcZcSRsEs26X-12" value="指标突增" style="rounded=0;whiteSpace=wrap;html=1;fillColor=#B3B3B3;" vertex="1" parent="1">
          <mxGeometry x="711" y="270" width="70" height="20" as="geometry" />
        </mxCell>
        <mxCell id="IhhSQsG7TcZcSRsEs26X-13" value="基线对比" style="rounded=0;whiteSpace=wrap;html=1;fillColor=#B3B3B3;" vertex="1" parent="1">
          <mxGeometry x="711" y="290" width="70" height="20" as="geometry" />
        </mxCell>
      </root>
    </mxGraphModel>
  </diagram>
</mxfile>
